# Created by Kenney (www.kenney.nl)

mtllib interior_wall_variant_2.mtl

g mergedBlocks

v 0.5 0 0.5
v 0.5 0 -0.5
v -0.5 0 0.5
v -0.5 0 -0.5
v 0.5 0.18 -0.5
v 0.5 0.18 0.5
v -0.5 0.18 -0.5
v -0.5 0.18 0.5
v 0.3999998 0.55 -0.1999992
v 0.2000001 0.45 -0.1999992
v 0.1500002 0.4 -0.1999992
v 0.2000001 0.55 -0.1999992
v 0.1500003 0.2 0.1500002
v 0.1500002 0.2 -0.1999992
v 0.1500003 0.4 0.1500002
v -0.1999991 0.2 0.1500003
v -0.1999991 0.4 0.1500003
v -0.1999991 0.2 0.4499997
v -0.1999991 0.4 0.4499997
v -0.1999991 0.45 0.3999998
v -0.1999991 0.45 0.2000002
v -0.1999991 0.55 0.3999998
v -0.1999991 0.55 0.2000002
v 0.4499998 0.4 0.4499996
v 0.4499998 0.2 0.4499996
v 0.4499997 0.2 -0.1999992
v 0.4499997 0.4 -0.1999992
v 0.3999999 0.45 0.3999997
v 0.3999998 0.45 -0.1999992
v 0.2000002 0.45 0.2000001
v 0.3999999 0.55 0.3999997
v 0.2000002 0.55 0.2000001
v -0.1999991 1.025 0.3999998
v -0.1999991 1.025 0.2000002
v -0.1999991 1.1 0.4249998
v -0.1999991 1.1 0.1750002
v -0.1999991 1.2 0.4249998
v -0.1999991 1.2 0.1750002
v 0.4249997 1.1 -0.1999992
v 0.4249997 1.2 -0.1999992
v 0.3999998 1.025 -0.1999992
v 0.1750002 1.2 -0.1999992
v 0.2000001 1.025 -0.1999992
v 0.1750002 1.1 -0.1999992
v 0.2000002 1.025 0.2000001
v 0.1750002 1.1 0.1750002
v 0.4249998 1.1 0.4249997
v 0.3999999 1.025 0.3999997
v 0.4249998 1.2 0.4249997
v 0.1750002 1.2 0.1750002
v -0.2000006 0.55 0.3999999
v -0.2000006 0.45 0.3999999
v -0.4999998 0.55 0.3999999
v -0.4999998 0.45 0.3999999
v -0.2000007 0.45 0.2000003
v -0.2000007 0.55 0.2000003
v -0.4999998 0.45 0.2000004
v -0.4999998 0.55 0.2000004
v -0.4999998 0.2 0.4499998
v -0.2000006 0.2 0.4499997
v -0.4999999 0.2 0.1500005
v -0.2000007 0.2 0.1500004
v -0.2000006 0.4 0.4499997
v -0.4999998 0.4 0.4499998
v -0.2000007 0.4 0.1500004
v -0.4999999 0.4 0.1500005
v -0.4999998 1.025 0.3999999
v -0.4999998 1.025 0.2000004
v -0.4999998 1.1 0.4249998
v -0.4999998 1.1 0.1750004
v -0.4999998 1.2 0.4249998
v -0.4999998 1.2 0.1750004
v -0.2000006 1.025 0.3999999
v -0.2000006 1.1 0.4249998
v -0.2000007 1.025 0.2000003
v -0.2000007 1.1 0.1750004
v -0.2000007 1.2 0.1750004
v -0.2000006 1.2 0.4249998
v 0.4 0.55 -0.4999994
v 0.4 0.45 -0.4999994
v 0.4 0.55 -0.2000002
v 0.4 0.45 -0.2000002
v 0.2000004 0.45 -0.4999994
v 0.2000004 0.55 -0.4999994
v 0.2000005 0.45 -0.2000002
v 0.2000005 0.55 -0.2000002
v 0.4499999 0.2 -0.2000002
v 0.4499999 0.2 -0.4999994
v 0.1500006 0.2 -0.2000002
v 0.1500005 0.2 -0.4999993
v 0.4499999 0.4 -0.4999994
v 0.4499999 0.4 -0.2000002
v 0.1500005 0.4 -0.4999993
v 0.1500006 0.4 -0.2000002
v 0.4 1.025 -0.2000002
v 0.2000005 1.025 -0.2000002
v 0.425 1.1 -0.2000002
v 0.1750005 1.1 -0.2000002
v 0.425 1.2 -0.2000002
v 0.1750005 1.2 -0.2000002
v 0.4 1.025 -0.4999994
v 0.4249999 1.1 -0.4999994
v 0.2000004 1.025 -0.4999994
v 0.1750005 1.1 -0.4999994
v 0.1750005 1.2 -0.4999994
v 0.4249999 1.2 -0.4999994
v 0.5 0.2 -0.5
v 0.5 0.2 0.5
v -0.5 0.2 -0.5
v -0.5 0.2 0.5

vn 0 -1 0
vn 1 0 0
vn -1 0 0
vn 0 0 -1
vn 0 0 1
vn -1.788136E-07 0 -0.9999983
vn -0.9999983 0 1.788136E-07
vn 1.788136E-07 0 0.9999983
vn 0.9999983 0 -1.788136E-07
vn 0.7071055 0.7071068 -1.264403E-07
vn -0.7071055 0.7071068 1.264403E-07
vn -1.264403E-07 0.7071068 -0.7071055
vn 1.264403E-07 0.7071068 0.7071055
vn -1.696375E-07 -0.3162278 -0.9486817
vn 1.696375E-07 -0.3162277 0.9486817
vn 0 1 0
vn -0.9486817 -0.3162278 1.696375E-07
vn 0.9486817 -0.3162278 -1.696375E-07
vn 1.788139E-07 0 1
vn -1.788139E-07 0 -1
vn 1 0 -1.788139E-07
vn -1 0 1.788139E-07
vn -1.264407E-07 0.707106 -0.7071077
vn 1.264407E-07 0.707106 0.7071077
vn 1.696378E-07 -0.3162271 0.9486836
vn -1.696378E-07 -0.3162271 -0.9486836
vn 1 0 -1.788139E-07
vn -1 0 1.788139E-07
vn -0.7071076 0.707106 1.264407E-07
vn 0.7071076 0.707106 -1.264407E-07
vn 0.9486836 -0.3162271 -1.696378E-07
vn -0.9486836 -0.3162271 1.696378E-07

vt -0.5 -0.5
vt -0.5 0.5
vt 0.5 -0.5
vt 0.5 0.5
vt 0.5 0.18
vt 0.5 0
vt -0.5 0.18
vt -0.5 0
vt -0.3999998 0.55
vt -0.2000001 0.45
vt -0.1500002 0.4
vt -0.2000001 0.55
vt 0.1500002 0.2
vt -0.1999992 0.2
vt 0.1500002 0.4
vt -0.1999992 0.4
vt -0.1500003 0.2
vt -0.1500003 0.4
vt 0.1999991 0.2
vt 0.1999991 0.4
vt 0.4499997 0.2
vt 0.1500003 0.2
vt 0.4499997 0.4
vt 0.1500003 0.4
vt 0.3999998 0.45
vt 0.2000002 0.45
vt 0.3999998 0.55
vt 0.2000002 0.55
vt 0.4499998 0.4
vt 0.4499998 0.2
vt -0.1999991 0.4
vt -0.1999991 0.2
vt 0.1999992 0.2
vt -0.4499996 0.2
vt 0.1999992 0.4
vt -0.4499996 0.4
vt -0.3999997 0.45
vt 0.1999992 0.45
vt 0.2000001 0.45
vt -0.1999992 0.45
vt -0.2000002 0.45
vt 0.1999991 0.45
vt 0.3999999 0.45
vt -0.1999991 0.45
vt 0.3999999 0.55
vt -0.1999991 0.55
vt 0.1999992 0.55
vt -0.3999997 0.55
vt -0.1999992 0.55
vt 0.2000001 0.55
vt -0.2000002 0.55
vt 0.1999991 0.55
vt 0.3999998 1.025
vt 0.2000002 1.025
vt 0.4249998 1.1
vt 0.1750002 1.1
vt 0.4249998 1.2
vt 0.1750002 1.2
vt -0.4249997 1.1
vt -0.4249997 1.2
vt -0.3999998 1.025
vt -0.1750002 1.2
vt -0.2000001 1.025
vt -0.1750002 1.1
vt -0.2000002 1.025
vt -0.1750002 1.1
vt 0.1999991 1.025
vt 0.1999991 1.1
vt 0.4249998 1.1
vt 0.3999999 1.025
vt -0.1999991 1.1
vt -0.1999991 1.025
vt 0.4249998 1.2
vt -0.1999991 1.2
vt -0.4249998 0.4249997
vt -0.1750002 0.1750002
vt -0.4249997 -0.1999992
vt -0.1750002 -0.1999992
vt 0.1999991 0.1750002
vt 0.1999991 0.4249998
vt 0.1750002 1.1
vt -0.1999992 1.1
vt 0.1750002 1.2
vt -0.1999992 1.2
vt -0.1750002 1.2
vt 0.1999991 1.2
vt -0.1999992 1.025
vt 0.2000001 1.025
vt 0.1999992 1.025
vt -0.3999997 1.025
vt 0.1999992 1.1
vt -0.4249997 1.1
vt 0.1999992 1.2
vt -0.4249997 1.2
vt 0.1999991 -0.4499997
vt -0.4499998 -0.4499996
vt 0.1999991 -0.1500003
vt -0.1500003 -0.1500002
vt -0.4499997 0.1999992
vt -0.1500002 0.1999992
vt 0.4999994 0.55
vt 0.4999994 0.45
vt 0.2000002 0.55
vt 0.2000002 0.45
vt -0.4999994 0.45
vt -0.4999994 0.55
vt -0.2000002 0.45
vt -0.2000002 0.55
vt -0.4499999 0.2000002
vt -0.4499999 0.4999994
vt -0.1500006 0.2000002
vt -0.1500005 0.4999994
vt 0.4999994 0.4
vt 0.4999994 0.2
vt 0.2000002 0.4
vt 0.2000002 0.2
vt -0.1500005 0.2
vt -0.4499999 0.2
vt -0.1500005 0.4
vt -0.4499999 0.4
vt -0.2000004 0.45
vt -0.4 0.45
vt -0.2000004 0.55
vt -0.4 0.55
vt -0.4999994 0.4
vt -0.2000002 0.4
vt -0.4999994 0.2
vt -0.2000002 0.2
vt 0.4499999 0.2
vt 0.1500006 0.2
vt 0.4499999 0.4
vt 0.1500006 0.4
vt 0.4 0.45
vt 0.2000005 0.45
vt 0.4 0.55
vt 0.2000005 0.55
vt 0.4 1.025
vt 0.2000005 1.025
vt 0.425 1.1
vt 0.1750005 1.1
vt 0.425 1.2
vt 0.1750005 1.2
vt -0.4 1.025
vt -0.4249999 1.1
vt -0.2000004 1.025
vt -0.1750005 1.1
vt -0.1750005 1.2
vt -0.4249999 1.2
vt 0.4999994 1.1
vt 0.4999994 1.025
vt 0.2000002 1.1
vt 0.2000002 1.025
vt -0.4999994 1.025
vt -0.4999994 1.1
vt -0.2000002 1.025
vt -0.2000002 1.1
vt -0.4249999 -0.4999994
vt -0.425 -0.2000002
vt -0.1750005 -0.4999994
vt -0.1750005 -0.2000002
vt -0.4999994 1.2
vt -0.2000002 1.2
vt 0.4999994 1.2
vt 0.2000002 1.2
vt -0.5 0.2
vt 0.5 0.2
vt -0.4499997 0.2
vt -0.4499997 0.4
vt -0.1500002 0.2
vt -0.3999998 0.45

usemtl stoneDark(Clone)

f 3/3/1 2/2/1 1/1/1
f 2/2/1 3/3/1 4/4/1
f 6/7/2 2/6/2 5/5/2
f 2/6/2 6/7/2 1/8/2
f 3/6/3 7/7/3 4/8/3
f 7/7/3 3/6/3 8/5/3
f 7/5/4 2/8/4 4/6/4
f 2/8/4 7/5/4 5/7/4
f 6/5/5 3/8/5 1/6/5
f 3/8/5 6/5/5 8/7/5
f 48/70/8 22/46/8 31/45/8
f 22/46/8 48/70/8 33/72/8
f 41/89/9 31/48/9 9/47/9
f 31/48/9 41/89/9 48/90/9
f 12/12/6 41/61/6 9/9/6
f 41/61/6 12/12/6 43/63/6
f 32/50/7 43/87/7 12/49/7
f 43/87/7 32/50/7 45/88/7
f 23/52/6 45/65/6 32/51/6
f 45/65/6 23/52/6 34/67/6
f 33/53/7 23/28/7 22/27/7
f 23/28/7 33/53/7 34/54/7
f 73/150/19 53/103/19 51/101/19
f 53/103/19 73/150/19 67/152/19
f 58/108/20 75/153/20 56/106/20
f 75/153/20 58/108/20 68/155/20
f 67/137/22 58/136/22 53/135/22
f 58/136/22 67/137/22 68/138/22
f 75/145/21 51/124/21 56/123/21
f 51/124/21 75/145/21 73/143/21
f 101/150/27 81/103/27 79/101/27
f 81/103/27 101/150/27 95/152/27
f 86/108/28 103/153/28 84/106/28
f 103/153/28 86/108/28 96/155/28
f 95/137/19 86/136/19 81/135/19
f 86/136/19 95/137/19 96/138/19
f 103/145/20 79/124/20 84/123/20
f 79/124/20 103/145/20 101/143/20

usemtl stoneLight(Clone)

f 109/3/16 108/2/16 107/1/16
f 108/2/16 109/3/16 110/4/16
f 8/5/3 109/165/3 7/7/3
f 109/165/3 8/5/3 110/166/3
f 108/166/5 8/7/5 6/5/5
f 8/7/5 108/166/5 110/165/5
f 108/165/2 5/5/2 107/166/2
f 5/5/2 108/165/2 6/7/2
f 109/166/4 5/7/4 7/5/4
f 5/7/4 109/166/4 107/165/4
f 14/169/6 27/168/6 26/167/6
f 27/168/6 14/169/6 29/170/6
f 29/170/6 14/169/6 9/9/6
f 9/9/6 14/169/6 10/10/6
f 10/10/6 14/169/6 11/11/6
f 12/12/6 9/9/6 10/10/6
f 15/15/7 14/14/7 13/13/7
f 14/14/7 15/15/7 11/16/7
f 16/19/6 15/18/6 13/17/6
f 15/18/6 16/19/6 17/20/6
f 19/23/7 16/22/7 18/21/7
f 16/22/7 19/23/7 17/24/7
f 17/24/7 19/23/7 20/25/7
f 17/24/7 20/25/7 21/26/7
f 21/26/7 20/25/7 22/27/7
f 21/26/7 22/27/7 23/28/7
f 19/31/8 25/30/8 24/29/8
f 25/30/8 19/31/8 18/32/8
f 27/35/9 25/34/9 26/33/9
f 25/34/9 27/35/9 24/36/9
f 27/35/10 28/37/10 24/36/10
f 28/37/10 27/35/10 29/38/10
f 30/39/11 11/16/11 15/15/11
f 11/16/11 30/39/11 10/40/11
f 15/18/12 21/42/12 30/41/12
f 21/42/12 15/18/12 17/20/12
f 28/43/13 19/31/13 24/29/13
f 19/31/13 28/43/13 20/44/13
f 31/45/8 20/44/8 28/43/8
f 20/44/8 31/45/8 22/46/8
f 9/47/9 28/37/9 29/38/9
f 28/37/9 9/47/9 31/48/9
f 30/39/7 12/49/7 10/40/7
f 12/49/7 30/39/7 32/50/7
f 21/42/6 32/51/6 30/41/6
f 32/51/6 21/42/6 23/52/6
f 35/55/7 34/54/7 33/53/7
f 34/54/7 35/55/7 36/56/7
f 36/56/7 35/55/7 37/57/7
f 36/56/7 37/57/7 38/58/7
f 41/61/6 40/60/6 39/59/6
f 40/60/6 41/61/6 42/62/6
f 42/62/6 41/61/6 43/63/6
f 42/62/6 43/63/6 44/64/6
f 34/67/14 46/66/14 45/65/14
f 46/66/14 34/67/14 36/68/14
f 35/71/15 48/70/15 47/69/15
f 48/70/15 35/71/15 33/72/15
f 37/74/8 47/69/8 49/73/8
f 47/69/8 37/74/8 35/71/8
f 40/77/16 50/76/16 49/75/16
f 50/76/16 40/77/16 42/78/16
f 38/79/16 49/75/16 50/76/16
f 49/75/16 38/79/16 37/80/16
f 50/83/7 44/82/7 46/81/7
f 44/82/7 50/83/7 42/84/7
f 36/68/6 50/85/6 46/66/6
f 50/85/6 36/68/6 38/86/6
f 45/88/17 44/82/17 43/87/17
f 44/82/17 45/88/17 46/81/17
f 39/91/18 48/90/18 41/89/18
f 48/90/18 39/91/18 47/92/18
f 40/93/9 47/92/9 39/91/9
f 47/92/9 40/93/9 49/94/9
f 16/97/1 25/96/1 18/95/1
f 25/96/1 16/97/1 13/98/1
f 25/96/1 13/98/1 26/99/1
f 26/99/1 13/98/1 14/100/1
f 53/103/19 52/102/19 51/101/19
f 52/102/19 53/103/19 54/104/19
f 57/107/20 56/106/20 55/105/20
f 56/106/20 57/107/20 58/108/20
f 61/111/1 60/110/1 59/109/1
f 60/110/1 61/111/1 62/112/1
f 64/115/19 60/114/19 63/113/19
f 60/114/19 64/115/19 59/116/19
f 65/119/21 60/118/21 62/117/21
f 60/118/21 65/119/21 63/120/21
f 63/120/21 65/119/21 55/121/21
f 63/120/21 55/121/21 52/122/21
f 52/122/21 55/121/21 56/123/21
f 52/122/21 56/123/21 51/124/21
f 62/127/20 66/126/20 65/125/20
f 66/126/20 62/127/20 61/128/20
f 64/131/22 61/130/22 59/129/22
f 61/130/22 64/131/22 66/132/22
f 66/132/22 64/131/22 54/133/22
f 66/132/22 54/133/22 57/134/22
f 57/134/22 54/133/22 53/135/22
f 57/134/22 53/135/22 58/136/22
f 65/125/23 57/107/23 55/105/23
f 57/107/23 65/125/23 66/126/23
f 52/102/24 64/115/24 63/113/24
f 64/115/24 52/102/24 54/104/24
f 69/139/22 68/138/22 67/137/22
f 68/138/22 69/139/22 70/140/22
f 70/140/22 69/139/22 71/141/22
f 70/140/22 71/141/22 72/142/22
f 75/145/21 74/144/21 73/143/21
f 74/144/21 75/145/21 76/146/21
f 74/144/21 76/146/21 77/147/21
f 74/144/21 77/147/21 78/148/21
f 69/151/25 73/150/25 74/149/25
f 73/150/25 69/151/25 67/152/25
f 68/155/26 76/154/26 75/153/26
f 76/154/26 68/155/26 70/156/26
f 77/159/16 71/158/16 78/157/16
f 71/158/16 77/159/16 72/160/16
f 70/156/20 77/161/20 76/154/20
f 77/161/20 70/156/20 72/162/20
f 71/164/19 74/149/19 78/163/19
f 74/149/19 71/164/19 69/151/19
f 81/103/27 80/102/27 79/101/27
f 80/102/27 81/103/27 82/104/27
f 85/107/28 84/106/28 83/105/28
f 84/106/28 85/107/28 86/108/28
f 89/111/1 88/110/1 87/109/1
f 88/110/1 89/111/1 90/112/1
f 92/115/27 88/114/27 91/113/27
f 88/114/27 92/115/27 87/116/27
f 93/119/20 88/118/20 90/117/20
f 88/118/20 93/119/20 91/120/20
f 91/120/20 93/119/20 83/121/20
f 91/120/20 83/121/20 80/122/20
f 80/122/20 83/121/20 84/123/20
f 80/122/20 84/123/20 79/124/20
f 90/127/28 94/126/28 93/125/28
f 94/126/28 90/127/28 89/128/28
f 92/131/19 89/130/19 87/129/19
f 89/130/19 92/131/19 94/132/19
f 94/132/19 92/131/19 82/133/19
f 94/132/19 82/133/19 85/134/19
f 85/134/19 82/133/19 81/135/19
f 85/134/19 81/135/19 86/136/19
f 93/125/29 85/107/29 83/105/29
f 85/107/29 93/125/29 94/126/29
f 80/102/30 92/115/30 91/113/30
f 92/115/30 80/102/30 82/104/30
f 97/139/19 96/138/19 95/137/19
f 96/138/19 97/139/19 98/140/19
f 98/140/19 97/139/19 99/141/19
f 98/140/19 99/141/19 100/142/19
f 103/145/20 102/144/20 101/143/20
f 102/144/20 103/145/20 104/146/20
f 102/144/20 104/146/20 105/147/20
f 102/144/20 105/147/20 106/148/20
f 97/151/31 101/150/31 102/149/31
f 101/150/31 97/151/31 95/152/31
f 96/155/32 104/154/32 103/153/32
f 104/154/32 96/155/32 98/156/32
f 105/159/16 99/158/16 106/157/16
f 99/158/16 105/159/16 100/160/16
f 98/156/28 105/161/28 104/154/28
f 105/161/28 98/156/28 100/162/28
f 99/164/27 102/149/27 106/163/27
f 102/149/27 99/164/27 97/151/27

